<mxfile host="app.diagrams.net" modified="2022-07-07T14:11:14.739Z" agent="5.0 (X11)" etag="yoS_78CxNO8m-PmwdevD" version="17.4.6" type="github">
  <diagram id="C5RBs43oDa-KdzZeNtuy" name="Page-1">
    <mxGraphModel dx="1760" dy="875" grid="1" gridSize="10" guides="1" tooltips="1" connect="1" arrows="1" fold="1" page="1" pageScale="1" pageWidth="1169" pageHeight="827" math="0" shadow="0">
      <root>
        <mxCell id="WIyWlLk6GJQsqaUBKTNV-0" />
        <mxCell id="WIyWlLk6GJQsqaUBKTNV-1" parent="WIyWlLk6GJQsqaUBKTNV-0" />
        <mxCell id="WIyWlLk6GJQsqaUBKTNV-2" value="" style="rounded=0;html=1;jettySize=auto;orthogonalLoop=1;fontSize=11;endArrow=blockThin;endFill=1;strokeWidth=2;shadow=0;labelBackgroundColor=none;edgeStyle=orthogonalEdgeStyle;exitX=0.5;exitY=1;exitDx=0;exitDy=0;fillColor=#f0a30a;strokeColor=#FF9933;" parent="WIyWlLk6GJQsqaUBKTNV-1" source="WIyWlLk6GJQsqaUBKTNV-3" target="WIyWlLk6GJQsqaUBKTNV-6" edge="1">
          <mxGeometry relative="1" as="geometry" />
        </mxCell>
        <mxCell id="WIyWlLk6GJQsqaUBKTNV-3" value="&lt;b&gt;&lt;font face=&quot;Verdana&quot;&gt;Janela&lt;/font&gt;&lt;/b&gt;" style="rounded=1;whiteSpace=wrap;html=1;fontSize=12;glass=0;strokeWidth=1;shadow=0;fillColor=#e6d0de;strokeColor=#996185;gradientColor=#d5739d;" parent="WIyWlLk6GJQsqaUBKTNV-1" vertex="1">
          <mxGeometry x="420" y="40" width="120" height="40" as="geometry" />
        </mxCell>
        <mxCell id="WIyWlLk6GJQsqaUBKTNV-4" value="" style="rounded=0;html=1;jettySize=auto;orthogonalLoop=1;fontSize=11;endArrow=blockThin;endFill=1;endSize=8;strokeWidth=2;shadow=0;labelBackgroundColor=none;edgeStyle=orthogonalEdgeStyle;exitX=0.5;exitY=1;exitDx=0;exitDy=0;strokeColor=#FF6666;" parent="WIyWlLk6GJQsqaUBKTNV-1" source="AQK5d4WnDnuNjK0uGipi-2" target="WIyWlLk6GJQsqaUBKTNV-10" edge="1">
          <mxGeometry y="20" relative="1" as="geometry">
            <mxPoint as="offset" />
          </mxGeometry>
        </mxCell>
        <mxCell id="WIyWlLk6GJQsqaUBKTNV-6" value="&lt;b&gt;&lt;font face=&quot;Verdana&quot;&gt;Location&lt;/font&gt;&lt;/b&gt;" style="rounded=1;whiteSpace=wrap;html=1;fontSize=12;glass=0;strokeWidth=1;shadow=0;fillColor=#ffcd28;strokeColor=#d79b00;gradientColor=#ffa500;" parent="WIyWlLk6GJQsqaUBKTNV-1" vertex="1">
          <mxGeometry x="180" y="160" width="100" height="40" as="geometry" />
        </mxCell>
        <mxCell id="WIyWlLk6GJQsqaUBKTNV-7" value="&lt;b&gt;&lt;font face=&quot;Verdana&quot;&gt;HistÃ³rico&lt;/font&gt;&lt;/b&gt;" style="rounded=1;whiteSpace=wrap;html=1;fontSize=12;glass=0;strokeWidth=1;shadow=0;fillColor=#ffcd28;strokeColor=#d79b00;gradientColor=#ffa500;" parent="WIyWlLk6GJQsqaUBKTNV-1" vertex="1">
          <mxGeometry x="660" y="160" width="120" height="40" as="geometry" />
        </mxCell>
        <mxCell id="WIyWlLk6GJQsqaUBKTNV-10" value="&lt;div&gt;&lt;b&gt;&lt;font face=&quot;Verdana&quot;&gt;Elemento&lt;/font&gt;&lt;/b&gt;&lt;/div&gt;&lt;div&gt;&lt;b&gt;&lt;font face=&quot;Verdana&quot;&gt;&amp;lt;html&amp;gt;&lt;br&gt;&lt;/font&gt;&lt;/b&gt;&lt;/div&gt;" style="rounded=1;whiteSpace=wrap;html=1;fontSize=12;glass=0;strokeWidth=1;shadow=0;fillColor=#dae8fc;gradientColor=#7ea6e0;strokeColor=#6c8ebf;" parent="WIyWlLk6GJQsqaUBKTNV-1" vertex="1">
          <mxGeometry x="430" y="265" width="100" height="50" as="geometry" />
        </mxCell>
        <mxCell id="WIyWlLk6GJQsqaUBKTNV-11" value="&lt;div&gt;&lt;b&gt;&lt;font face=&quot;Verdana&quot;&gt;Elemento&lt;/font&gt;&lt;/b&gt;&lt;/div&gt;&lt;div&gt;&lt;b&gt;&lt;font face=&quot;Verdana&quot;&gt;&amp;lt;head&amp;gt;&lt;br&gt;&lt;/font&gt;&lt;/b&gt;&lt;/div&gt;" style="rounded=1;whiteSpace=wrap;html=1;fontSize=12;glass=0;strokeWidth=1;shadow=0;fillColor=#d5e8d4;gradientColor=#97d077;strokeColor=#82b366;" parent="WIyWlLk6GJQsqaUBKTNV-1" vertex="1">
          <mxGeometry x="190" y="378" width="120" height="40" as="geometry" />
        </mxCell>
        <mxCell id="WIyWlLk6GJQsqaUBKTNV-12" value="&lt;div&gt;&lt;b&gt;&lt;font face=&quot;Verdana&quot;&gt;Elemento&lt;/font&gt;&lt;/b&gt;&lt;/div&gt;&lt;div&gt;&lt;b&gt;&lt;font face=&quot;Verdana&quot;&gt;&amp;lt;body&amp;gt;&lt;br&gt;&lt;/font&gt;&lt;/b&gt;&lt;/div&gt;" style="rounded=1;whiteSpace=wrap;html=1;fontSize=12;glass=0;strokeWidth=1;shadow=0;fillColor=#d5e8d4;gradientColor=#97d077;strokeColor=#82b366;" parent="WIyWlLk6GJQsqaUBKTNV-1" vertex="1">
          <mxGeometry x="420" y="378" width="120" height="40" as="geometry" />
        </mxCell>
        <mxCell id="AQK5d4WnDnuNjK0uGipi-1" value="" style="rounded=0;html=1;jettySize=auto;orthogonalLoop=1;fontSize=11;endArrow=blockThin;endFill=1;strokeWidth=2;shadow=0;labelBackgroundColor=none;edgeStyle=orthogonalEdgeStyle;exitX=0.5;exitY=1;exitDx=0;exitDy=0;entryX=0.5;entryY=0;entryDx=0;entryDy=0;fillColor=#f0a30a;strokeColor=#FF9933;" edge="1" parent="WIyWlLk6GJQsqaUBKTNV-1" source="WIyWlLk6GJQsqaUBKTNV-3" target="WIyWlLk6GJQsqaUBKTNV-7">
          <mxGeometry relative="1" as="geometry">
            <mxPoint x="660" y="130" as="sourcePoint" />
            <mxPoint x="490" y="220" as="targetPoint" />
          </mxGeometry>
        </mxCell>
        <mxCell id="AQK5d4WnDnuNjK0uGipi-2" value="&lt;b&gt;&lt;font face=&quot;Verdana&quot;&gt;Documento&lt;/font&gt;&lt;/b&gt;" style="rounded=1;whiteSpace=wrap;html=1;fontSize=12;glass=0;strokeWidth=1;shadow=0;fillColor=#f8cecc;gradientColor=#ea6b66;strokeColor=#b85450;" vertex="1" parent="WIyWlLk6GJQsqaUBKTNV-1">
          <mxGeometry x="420" y="171" width="120" height="40" as="geometry" />
        </mxCell>
        <mxCell id="AQK5d4WnDnuNjK0uGipi-3" value="" style="rounded=0;html=1;jettySize=auto;orthogonalLoop=1;fontSize=11;endArrow=blockThin;endFill=1;strokeWidth=2;shadow=0;labelBackgroundColor=none;edgeStyle=orthogonalEdgeStyle;entryX=0.5;entryY=0;entryDx=0;entryDy=0;exitX=0.5;exitY=1;exitDx=0;exitDy=0;fillColor=#fa6800;strokeColor=#FF9933;" edge="1" parent="WIyWlLk6GJQsqaUBKTNV-1" source="WIyWlLk6GJQsqaUBKTNV-3" target="AQK5d4WnDnuNjK0uGipi-2">
          <mxGeometry y="20" relative="1" as="geometry">
            <mxPoint as="offset" />
            <mxPoint x="240" y="210" as="sourcePoint" />
            <mxPoint x="320" y="300" as="targetPoint" />
          </mxGeometry>
        </mxCell>
        <mxCell id="AQK5d4WnDnuNjK0uGipi-4" value="" style="rounded=0;html=1;jettySize=auto;orthogonalLoop=1;fontSize=11;endArrow=blockThin;endFill=1;endSize=8;strokeWidth=2;shadow=0;labelBackgroundColor=none;edgeStyle=orthogonalEdgeStyle;entryX=1;entryY=0.5;entryDx=0;entryDy=0;exitX=0;exitY=0.5;exitDx=0;exitDy=0;strokeColor=#00994D;" edge="1" parent="WIyWlLk6GJQsqaUBKTNV-1" source="WIyWlLk6GJQsqaUBKTNV-12" target="WIyWlLk6GJQsqaUBKTNV-11">
          <mxGeometry x="-1" y="116" relative="1" as="geometry">
            <mxPoint x="50" y="-11" as="offset" />
            <mxPoint x="309.5" y="238" as="sourcePoint" />
            <mxPoint x="309.5" y="358" as="targetPoint" />
          </mxGeometry>
        </mxCell>
        <mxCell id="AQK5d4WnDnuNjK0uGipi-5" value="" style="rounded=0;html=1;jettySize=auto;orthogonalLoop=1;fontSize=11;endArrow=blockThin;endFill=1;endSize=8;strokeWidth=2;shadow=0;labelBackgroundColor=none;edgeStyle=orthogonalEdgeStyle;entryX=0.5;entryY=0;entryDx=0;entryDy=0;exitX=0.5;exitY=1;exitDx=0;exitDy=0;strokeColor=#0066CC;" edge="1" parent="WIyWlLk6GJQsqaUBKTNV-1" source="WIyWlLk6GJQsqaUBKTNV-10" target="WIyWlLk6GJQsqaUBKTNV-12">
          <mxGeometry x="-1" y="116" relative="1" as="geometry">
            <mxPoint x="50" y="-11" as="offset" />
            <mxPoint x="440" y="300" as="sourcePoint" />
            <mxPoint x="320" y="415" as="targetPoint" />
          </mxGeometry>
        </mxCell>
        <mxCell id="AQK5d4WnDnuNjK0uGipi-6" value="&lt;div&gt;&lt;b&gt;&lt;font face=&quot;Verdana&quot;&gt;Elemento&lt;/font&gt;&lt;/b&gt;&lt;/div&gt;&lt;div&gt;&lt;b&gt;&lt;font face=&quot;Verdana&quot;&gt;&amp;lt;title&amp;gt;&lt;br&gt;&lt;/font&gt;&lt;/b&gt;&lt;/div&gt;" style="rounded=1;whiteSpace=wrap;html=1;fontSize=12;glass=0;strokeWidth=1;shadow=0;fillColor=#fff2cc;gradientColor=#ffd966;strokeColor=#d6b656;" vertex="1" parent="WIyWlLk6GJQsqaUBKTNV-1">
          <mxGeometry x="190" y="480" width="120" height="40" as="geometry" />
        </mxCell>
        <mxCell id="AQK5d4WnDnuNjK0uGipi-7" value="&lt;div&gt;&lt;b&gt;&lt;font face=&quot;Verdana&quot;&gt;texto&lt;/font&gt;&lt;/b&gt;&lt;/div&gt;&lt;div&gt;&lt;b&gt;&lt;font face=&quot;Verdana&quot;&gt;&quot;Meu titulo&quot;&lt;br&gt;&lt;/font&gt;&lt;/b&gt;&lt;/div&gt;" style="rounded=1;whiteSpace=wrap;html=1;fontSize=12;glass=0;strokeWidth=1;shadow=0;fillColor=#fff2cc;gradientColor=#ffd966;strokeColor=#d6b656;" vertex="1" parent="WIyWlLk6GJQsqaUBKTNV-1">
          <mxGeometry x="190" y="560" width="120" height="40" as="geometry" />
        </mxCell>
        <mxCell id="AQK5d4WnDnuNjK0uGipi-8" value="&lt;div&gt;&lt;b&gt;&lt;font face=&quot;Verdana&quot;&gt;Elemento&lt;/font&gt;&lt;/b&gt;&lt;/div&gt;&lt;div&gt;&lt;b&gt;&lt;font face=&quot;Verdana&quot;&gt;&amp;lt;h1&amp;gt;&lt;br&gt;&lt;/font&gt;&lt;/b&gt;&lt;/div&gt;" style="rounded=1;whiteSpace=wrap;html=1;fontSize=12;glass=0;strokeWidth=1;shadow=0;fillColor=#fff2cc;gradientColor=#ffd966;strokeColor=#d6b656;" vertex="1" parent="WIyWlLk6GJQsqaUBKTNV-1">
          <mxGeometry x="420" y="470" width="120" height="40" as="geometry" />
        </mxCell>
        <mxCell id="AQK5d4WnDnuNjK0uGipi-9" value="&lt;div&gt;&lt;b&gt;&lt;font face=&quot;Verdana&quot;&gt;texto&lt;/font&gt;&lt;/b&gt;&lt;/div&gt;&lt;div&gt;&lt;b&gt;&lt;font face=&quot;Verdana&quot;&gt;&quot;um titulo&quot;&lt;br&gt;&lt;/font&gt;&lt;/b&gt;&lt;/div&gt;" style="rounded=1;whiteSpace=wrap;html=1;fontSize=12;glass=0;strokeWidth=1;shadow=0;fillColor=#fff2cc;gradientColor=#ffd966;strokeColor=#d6b656;" vertex="1" parent="WIyWlLk6GJQsqaUBKTNV-1">
          <mxGeometry x="420" y="550" width="120" height="40" as="geometry" />
        </mxCell>
        <mxCell id="AQK5d4WnDnuNjK0uGipi-10" value="&lt;div&gt;&lt;b&gt;&lt;font face=&quot;Verdana&quot;&gt;Elemento&lt;/font&gt;&lt;/b&gt;&lt;/div&gt;&lt;div&gt;&lt;b&gt;&lt;font face=&quot;Verdana&quot;&gt;&amp;lt;div&amp;gt;&lt;br&gt;&lt;/font&gt;&lt;/b&gt;&lt;/div&gt;" style="rounded=1;whiteSpace=wrap;html=1;fontSize=12;glass=0;strokeWidth=1;shadow=0;fillColor=#fff2cc;gradientColor=#ffd966;strokeColor=#d6b656;" vertex="1" parent="WIyWlLk6GJQsqaUBKTNV-1">
          <mxGeometry x="710" y="470" width="120" height="40" as="geometry" />
        </mxCell>
        <mxCell id="AQK5d4WnDnuNjK0uGipi-11" value="&lt;div&gt;&lt;b&gt;&lt;font face=&quot;Verdana&quot;&gt;texto&lt;/font&gt;&lt;/b&gt;&lt;/div&gt;&lt;div&gt;&lt;b&gt;&lt;font face=&quot;Verdana&quot;&gt;&quot;um parÃ¡grafo&quot;&lt;br&gt;&lt;/font&gt;&lt;/b&gt;&lt;/div&gt;" style="rounded=1;whiteSpace=wrap;html=1;fontSize=12;glass=0;strokeWidth=1;shadow=0;fillColor=#fff2cc;gradientColor=#ffd966;strokeColor=#d6b656;" vertex="1" parent="WIyWlLk6GJQsqaUBKTNV-1">
          <mxGeometry x="610" y="640" width="120" height="40" as="geometry" />
        </mxCell>
        <mxCell id="AQK5d4WnDnuNjK0uGipi-12" value="&lt;div&gt;&lt;b&gt;&lt;font face=&quot;Verdana&quot;&gt;Elemento&lt;/font&gt;&lt;/b&gt;&lt;/div&gt;&lt;div&gt;&lt;b&gt;&lt;font face=&quot;Verdana&quot;&gt;&amp;lt;p&amp;gt;&lt;br&gt;&lt;/font&gt;&lt;/b&gt;&lt;/div&gt;" style="rounded=1;whiteSpace=wrap;html=1;fontSize=12;glass=0;strokeWidth=1;shadow=0;fillColor=#fff2cc;gradientColor=#ffd966;strokeColor=#d6b656;" vertex="1" parent="WIyWlLk6GJQsqaUBKTNV-1">
          <mxGeometry x="610" y="550" width="120" height="40" as="geometry" />
        </mxCell>
        <mxCell id="AQK5d4WnDnuNjK0uGipi-13" value="&lt;div&gt;&lt;b&gt;&lt;font face=&quot;Verdana&quot;&gt;Elemento&lt;/font&gt;&lt;/b&gt;&lt;/div&gt;&lt;div&gt;&lt;b&gt;&lt;font face=&quot;Verdana&quot;&gt;&amp;lt;p&amp;gt;&lt;br&gt;&lt;/font&gt;&lt;/b&gt;&lt;/div&gt;" style="rounded=1;whiteSpace=wrap;html=1;fontSize=12;glass=0;strokeWidth=1;shadow=0;fillColor=#fff2cc;gradientColor=#ffd966;strokeColor=#d6b656;" vertex="1" parent="WIyWlLk6GJQsqaUBKTNV-1">
          <mxGeometry x="810" y="550" width="120" height="40" as="geometry" />
        </mxCell>
        <mxCell id="AQK5d4WnDnuNjK0uGipi-14" value="&lt;div&gt;&lt;b&gt;&lt;font face=&quot;Verdana&quot;&gt;atributo&lt;/font&gt;&lt;/b&gt;&lt;/div&gt;&lt;div&gt;&lt;b&gt;&lt;font face=&quot;Verdana&quot;&gt;class = &quot;atr&quot;&lt;br&gt;&lt;/font&gt;&lt;/b&gt;&lt;/div&gt;" style="rounded=1;whiteSpace=wrap;html=1;fontSize=12;glass=0;strokeWidth=1;shadow=0;fillColor=#fff2cc;gradientColor=#ffd966;strokeColor=#d6b656;" vertex="1" parent="WIyWlLk6GJQsqaUBKTNV-1">
          <mxGeometry x="810" y="640" width="120" height="40" as="geometry" />
        </mxCell>
        <mxCell id="AQK5d4WnDnuNjK0uGipi-15" value="" style="rounded=0;html=1;jettySize=auto;orthogonalLoop=1;fontSize=11;endArrow=blockThin;endFill=1;endSize=8;strokeWidth=2;shadow=0;labelBackgroundColor=none;edgeStyle=orthogonalEdgeStyle;entryX=0.5;entryY=0;entryDx=0;entryDy=0;exitX=0.5;exitY=1;exitDx=0;exitDy=0;strokeColor=#00994D;" edge="1" parent="WIyWlLk6GJQsqaUBKTNV-1" source="WIyWlLk6GJQsqaUBKTNV-12" target="AQK5d4WnDnuNjK0uGipi-8">
          <mxGeometry x="-1" y="116" relative="1" as="geometry">
            <mxPoint x="50" y="-11" as="offset" />
            <mxPoint x="490" y="325" as="sourcePoint" />
            <mxPoint x="490" y="388" as="targetPoint" />
          </mxGeometry>
        </mxCell>
        <mxCell id="AQK5d4WnDnuNjK0uGipi-16" value="" style="rounded=0;html=1;jettySize=auto;orthogonalLoop=1;fontSize=11;endArrow=blockThin;endFill=1;endSize=8;strokeWidth=2;shadow=0;labelBackgroundColor=none;edgeStyle=orthogonalEdgeStyle;entryX=0.5;entryY=0;entryDx=0;entryDy=0;strokeColor=#00994D;" edge="1" parent="WIyWlLk6GJQsqaUBKTNV-1" target="AQK5d4WnDnuNjK0uGipi-6">
          <mxGeometry x="-1" y="116" relative="1" as="geometry">
            <mxPoint x="50" y="-11" as="offset" />
            <mxPoint x="250" y="420" as="sourcePoint" />
            <mxPoint x="320" y="408" as="targetPoint" />
          </mxGeometry>
        </mxCell>
        <mxCell id="AQK5d4WnDnuNjK0uGipi-17" value="" style="rounded=0;html=1;jettySize=auto;orthogonalLoop=1;fontSize=11;endArrow=blockThin;endFill=1;endSize=8;strokeWidth=2;shadow=0;labelBackgroundColor=none;edgeStyle=orthogonalEdgeStyle;entryX=0.5;entryY=0;entryDx=0;entryDy=0;strokeColor=#00994D;exitX=0.5;exitY=1;exitDx=0;exitDy=0;" edge="1" parent="WIyWlLk6GJQsqaUBKTNV-1" source="AQK5d4WnDnuNjK0uGipi-6" target="AQK5d4WnDnuNjK0uGipi-7">
          <mxGeometry x="-1" y="116" relative="1" as="geometry">
            <mxPoint x="50" y="-11" as="offset" />
            <mxPoint x="300" y="440" as="sourcePoint" />
            <mxPoint x="260" y="490" as="targetPoint" />
          </mxGeometry>
        </mxCell>
        <mxCell id="AQK5d4WnDnuNjK0uGipi-18" value="" style="rounded=0;html=1;jettySize=auto;orthogonalLoop=1;fontSize=11;endArrow=blockThin;endFill=1;endSize=8;strokeWidth=2;shadow=0;labelBackgroundColor=none;edgeStyle=orthogonalEdgeStyle;entryX=0.5;entryY=0;entryDx=0;entryDy=0;exitX=0.5;exitY=1;exitDx=0;exitDy=0;strokeColor=#00994D;" edge="1" parent="WIyWlLk6GJQsqaUBKTNV-1" source="AQK5d4WnDnuNjK0uGipi-8" target="AQK5d4WnDnuNjK0uGipi-9">
          <mxGeometry x="-1" y="116" relative="1" as="geometry">
            <mxPoint x="50" y="-11" as="offset" />
            <mxPoint x="490" y="428" as="sourcePoint" />
            <mxPoint x="490" y="480" as="targetPoint" />
          </mxGeometry>
        </mxCell>
        <mxCell id="AQK5d4WnDnuNjK0uGipi-19" value="" style="rounded=0;html=1;jettySize=auto;orthogonalLoop=1;fontSize=11;endArrow=blockThin;endFill=1;endSize=8;strokeWidth=2;shadow=0;labelBackgroundColor=none;edgeStyle=orthogonalEdgeStyle;entryX=0;entryY=0.5;entryDx=0;entryDy=0;strokeColor=#00994D;exitX=1;exitY=0.5;exitDx=0;exitDy=0;" edge="1" parent="WIyWlLk6GJQsqaUBKTNV-1" source="AQK5d4WnDnuNjK0uGipi-8" target="AQK5d4WnDnuNjK0uGipi-10">
          <mxGeometry x="-1" y="116" relative="1" as="geometry">
            <mxPoint x="50" y="-11" as="offset" />
            <mxPoint x="260" y="430" as="sourcePoint" />
            <mxPoint x="260" y="490" as="targetPoint" />
          </mxGeometry>
        </mxCell>
        <mxCell id="AQK5d4WnDnuNjK0uGipi-20" value="" style="rounded=0;html=1;jettySize=auto;orthogonalLoop=1;fontSize=11;endArrow=blockThin;endFill=1;endSize=8;strokeWidth=2;shadow=0;labelBackgroundColor=none;edgeStyle=orthogonalEdgeStyle;entryX=0.5;entryY=0;entryDx=0;entryDy=0;strokeColor=#00994D;exitX=0.5;exitY=1;exitDx=0;exitDy=0;" edge="1" parent="WIyWlLk6GJQsqaUBKTNV-1" source="AQK5d4WnDnuNjK0uGipi-12" target="AQK5d4WnDnuNjK0uGipi-11">
          <mxGeometry x="-1" y="116" relative="1" as="geometry">
            <mxPoint x="50" y="-11" as="offset" />
            <mxPoint x="550" y="500" as="sourcePoint" />
            <mxPoint x="640" y="500" as="targetPoint" />
          </mxGeometry>
        </mxCell>
        <mxCell id="AQK5d4WnDnuNjK0uGipi-21" value="" style="rounded=0;html=1;jettySize=auto;orthogonalLoop=1;fontSize=11;endArrow=blockThin;endFill=1;endSize=8;strokeWidth=2;shadow=0;labelBackgroundColor=none;edgeStyle=orthogonalEdgeStyle;entryX=0.5;entryY=0;entryDx=0;entryDy=0;strokeColor=#00994D;exitX=0.5;exitY=1;exitDx=0;exitDy=0;" edge="1" parent="WIyWlLk6GJQsqaUBKTNV-1" source="AQK5d4WnDnuNjK0uGipi-10" target="AQK5d4WnDnuNjK0uGipi-12">
          <mxGeometry x="-1" y="116" relative="1" as="geometry">
            <mxPoint x="50" y="-11" as="offset" />
            <mxPoint x="680" y="600" as="sourcePoint" />
            <mxPoint x="680" y="650" as="targetPoint" />
          </mxGeometry>
        </mxCell>
        <mxCell id="AQK5d4WnDnuNjK0uGipi-22" value="" style="rounded=0;html=1;jettySize=auto;orthogonalLoop=1;fontSize=11;endArrow=blockThin;endFill=1;endSize=8;strokeWidth=2;shadow=0;labelBackgroundColor=none;edgeStyle=orthogonalEdgeStyle;entryX=0.5;entryY=0;entryDx=0;entryDy=0;strokeColor=#00994D;exitX=0.5;exitY=1;exitDx=0;exitDy=0;" edge="1" parent="WIyWlLk6GJQsqaUBKTNV-1" source="AQK5d4WnDnuNjK0uGipi-10" target="AQK5d4WnDnuNjK0uGipi-13">
          <mxGeometry x="-1" y="116" relative="1" as="geometry">
            <mxPoint x="50" y="-11" as="offset" />
            <mxPoint x="860" y="338" as="sourcePoint" />
            <mxPoint x="760" y="378" as="targetPoint" />
          </mxGeometry>
        </mxCell>
        <mxCell id="AQK5d4WnDnuNjK0uGipi-23" value="" style="rounded=0;html=1;jettySize=auto;orthogonalLoop=1;fontSize=11;endArrow=blockThin;endFill=1;endSize=8;strokeWidth=2;shadow=0;labelBackgroundColor=none;edgeStyle=orthogonalEdgeStyle;entryX=0.5;entryY=0;entryDx=0;entryDy=0;strokeColor=#00994D;exitX=0.5;exitY=1;exitDx=0;exitDy=0;" edge="1" parent="WIyWlLk6GJQsqaUBKTNV-1" source="AQK5d4WnDnuNjK0uGipi-13" target="AQK5d4WnDnuNjK0uGipi-14">
          <mxGeometry x="-1" y="116" relative="1" as="geometry">
            <mxPoint x="50" y="-11" as="offset" />
            <mxPoint x="680" y="600" as="sourcePoint" />
            <mxPoint x="680" y="650" as="targetPoint" />
          </mxGeometry>
        </mxCell>
      </root>
    </mxGraphModel>
  </diagram>
</mxfile>
